# xmcd
#
# Track frame offsets:
#	150
#	14780
#	28808
#	40943
#	53352
#	65657
#	79022
#	89993
#	103927
#	115573
#	128128
#
# Disc length: 1917 seconds
#
# Revision: 0
# Processed by: cddbd v1.5.2PL0 Copyright (c) Steve Scherf et al.
# Submitted via: FairStars CD Ripper 1.52
#
DISCID=95077b0b
DTITLE=Glen Campbell - Icon
DYEAR=2013
DGENRE=Pop
TTITLE0=Rhinestone Cowboy
TTITLE1=Wichita Lineman
TTITLE2=Galveston
TTITLE3=I Wanna Live
TTITLE4=By The Time I Get To Phoenix
TTITLE5=Gentle On My Mind
TTITLE6=Try A Little Kindness
TTITLE7=Country Boy
TTITLE8=Dreams of the Everyday Housewife
TTITLE9=Bonaparte's Retreat
TTITLE10=These Days
EXTD=
EXTT0=
EXTT1=
EXTT2=
EXTT3=
EXTT4=
EXTT5=
EXTT6=
EXTT7=
EXTT8=
EXTT9=
EXTT10=
PLAYORDER=
